<svg width="80" height="80" viewBox="0 0 80 80" fill="none" xmlns="http://www.w3.org/2000/svg">
<g clip-path="url(#clip0_35_936)">
<path d="M40 0C17.9086 0 0 17.9086 0 40C0 62.0914 17.9086 80 40 80C62.0914 80 80 62.0914 80 40C80 17.9086 62.0914 0 40 0ZM25.625 15.8887C26.4491 15.8401 27.1941 16.3327 27.7588 17.207L33.2275 27.5781C33.8033 28.807 33.4761 30.1229 32.6172 31.0009L30.1123 33.5058C29.9577 33.7177 29.856 33.9563 29.8535 34.2187C30.8141 37.937 33.728 41.3669 36.2989 43.7255C38.8697 46.0842 41.6329 49.2776 45.2197 50.0341C45.6631 50.1578 46.2062 50.2021 46.5235 49.9073L49.4336 46.9434C50.4381 46.182 51.8913 45.813 52.9639 46.4356H53.0127L62.8807 52.2608C64.3293 53.1687 64.4793 54.9237 63.4423 55.9913L56.6455 62.7344C55.6418 63.7637 54.3083 64.1098 53.0128 64.1113C47.2829 63.9397 41.8689 61.1274 37.422 58.2373C30.1227 52.9271 23.4271 46.3409 19.2237 38.3838C17.6115 35.0471 15.7177 30.7898 15.8985 27.0655C15.9146 25.6645 16.2937 24.2919 17.2803 23.3888L24.0772 16.5919C24.6067 16.1414 25.1305 15.9179 25.625 15.8887Z" fill="black"/>
</g>
<defs>
<clipPath id="clip0_35_936">
<rect width="80" height="80" fill="white"/>
</clipPath>
</defs>
</svg>
