<svg width="40" height="41" viewBox="0 0 40 41" fill="none" xmlns="http://www.w3.org/2000/svg">
<mask id="mask0_202_19" style="mask-type:luminance" maskUnits="userSpaceOnUse" x="0" y="0" width="40" height="41">
<path d="M0 0H40V40.0313H0V0Z" fill="white"/>
</mask>
<g mask="url(#mask0_202_19)">
<path fill-rule="evenodd" clip-rule="evenodd" d="M20 0C8.95333 0 0 8.96201 0 20.0156C0 31.0693 8.95333 40.0313 20 40.0313C31.045 40.0313 40 31.0693 40 20.0156C40 8.96201 31.045 0 20 0ZM20.2333 31.7215C13.7867 31.7215 8.56667 26.484 8.56667 20.0156C8.56667 13.5473 13.7867 8.30983 20.2333 8.30983C23.3833 8.30983 26.0167 9.4724 28.0367 11.3605L24.7467 14.6598V14.6531C23.5217 13.4822 21.9683 12.8817 20.2333 12.8817C16.3833 12.8817 13.255 16.1443 13.255 20.009C13.255 23.8703 16.3833 27.1429 20.2333 27.1429C23.7267 27.1429 26.1033 25.138 26.5933 22.3858H20.2333V17.8206H31.2083C31.355 18.6045 31.4333 19.4218 31.4333 20.2792C31.4333 26.9677 26.9717 31.7215 20.2333 31.7215Z" fill="black"/>
</g>
</svg>
