<svg width="40" height="40" viewBox="0 0 40 40" fill="none" xmlns="http://www.w3.org/2000/svg">
<path d="M39.7383 7.95419C39.6321 7.82665 39.4991 7.72403 39.3488 7.65361C39.1985 7.58318 39.0345 7.54667 38.8685 7.54667H8.11333L7.13784 2.16967C7.02732 1.56074 6.70647 1.00995 6.23128 0.613411C5.75609 0.216877 5.15673 -0.000221853 4.5378 1.70126e-07H1.13209C0.831843 1.70126e-07 0.543891 0.119264 0.331582 0.331555C0.119274 0.543846 0 0.831775 0 1.132C0 1.43223 0.119274 1.72015 0.331582 1.93244C0.543891 2.14474 0.831843 2.264 1.13209 2.264H4.52837C4.61773 2.26254 4.7047 2.29284 4.7738 2.3495C4.84291 2.40616 4.88966 2.48551 4.90573 2.57341L9.71901 29.0433C9.87169 29.8877 10.2831 30.6637 10.8964 31.264C10.1559 31.8562 9.60288 32.6504 9.30434 33.5503C9.0058 34.4503 8.97451 35.4175 9.21426 36.3349C9.454 37.2522 9.9545 38.0805 10.6552 38.7193C11.3559 39.3582 12.2267 39.7803 13.1623 39.9346C14.098 40.0889 15.0583 39.9687 15.927 39.5887C16.7957 39.2086 17.5357 38.5849 18.0574 37.7931C18.579 37.0013 18.86 36.0753 18.8662 35.1271C18.8725 34.179 18.6038 33.2493 18.0927 32.4507H27.9457C27.359 33.3687 27.0947 34.4559 27.1944 35.5407C27.294 36.6256 27.752 37.6464 28.4961 38.4422C29.2403 39.238 30.2281 39.7634 31.304 39.9356C32.3798 40.1079 33.4823 39.9171 34.4377 39.3934C35.3931 38.8697 36.147 38.0429 36.5804 37.0434C37.0138 36.0438 37.1021 34.9285 36.8314 33.8732C36.5607 32.8179 35.9464 31.8828 35.0853 31.2153C34.2243 30.5478 33.1655 30.1859 32.076 30.1867H13.8059C13.364 30.1867 12.9361 30.0317 12.5968 29.7486C12.2575 29.4656 12.0283 29.0724 11.9492 28.6377L11.27 24.904H33.6043C34.5764 24.9042 35.5178 24.5633 36.2644 23.9406C37.0109 23.318 37.5151 22.453 37.6892 21.4967L39.9817 8.88054C40.0113 8.71773 40.0049 8.5504 39.9628 8.39035C39.9208 8.2303 39.8442 8.08142 39.7383 7.95419ZM16.604 35.092C16.604 35.6144 16.4491 36.1251 16.1588 36.5594C15.8686 36.9938 15.456 37.3324 14.9734 37.5323C14.4907 37.7322 13.9595 37.7845 13.4471 37.6826C12.9347 37.5807 12.464 37.3291 12.0946 36.9597C11.7252 36.5903 11.4736 36.1197 11.3717 35.6073C11.2698 35.0949 11.3221 34.5638 11.522 34.0812C11.7219 33.5986 12.0605 33.186 12.4949 32.8958C12.9293 32.6056 13.44 32.4507 13.9625 32.4507C14.6631 32.4507 15.3349 32.7289 15.8303 33.2243C16.3257 33.7196 16.604 34.3915 16.604 35.092ZM34.7175 35.092C34.7175 35.6144 34.5626 36.1251 34.2723 36.5594C33.9821 36.9938 33.5695 37.3324 33.0868 37.5323C32.6042 37.7322 32.073 37.7845 31.5606 37.6826C31.0482 37.5807 30.5775 37.3291 30.2081 36.9597C29.8387 36.5903 29.5871 36.1197 29.4852 35.6073C29.3832 35.0949 29.4355 34.5638 29.6355 34.0812C29.8354 33.5986 30.174 33.186 30.6084 32.8958C31.0428 32.6056 31.5535 32.4507 32.076 32.4507C32.7765 32.4507 33.4484 32.7289 33.9438 33.2243C34.4392 33.7196 34.7175 34.3915 34.7175 35.092ZM35.4609 21.091C35.3818 21.5258 35.1526 21.9189 34.8133 22.202C34.474 22.4851 34.0462 22.6401 33.6043 22.64H10.8587L8.52654 9.81067H37.5119L35.4609 21.091Z" fill="black"/>
</svg>
