<svg width="44" height="44" viewBox="0 0 44 44" fill="none" xmlns="http://www.w3.org/2000/svg">
<path d="M21.875 0C9.79492 0 0 9.80258 0 21.8921C0 33.9816 9.79492 43.7842 21.875 43.7842C33.9551 43.7842 43.75 33.9816 43.75 21.8921C43.75 9.80258 33.9551 0 21.875 0ZM32.3877 16.5022C32.4023 16.7318 32.4023 16.9713 32.4023 17.2058C32.4023 24.3794 26.9434 32.6427 16.9678 32.6427C13.8916 32.6427 11.04 31.7485 8.6377 30.2092C9.07715 30.258 9.49707 30.2776 9.94629 30.2776C12.4854 30.2776 14.8193 29.4175 16.6797 27.9613C14.2969 27.9124 12.2949 26.3487 11.6113 24.1986C12.4463 24.3208 13.1982 24.3208 14.0576 24.1009C12.8307 23.8514 11.7279 23.1845 10.9366 22.2136C10.1453 21.2426 9.71429 20.0274 9.7168 18.7744V18.706C10.4346 19.1116 11.2793 19.3608 12.1631 19.395C11.4201 18.8995 10.8108 18.2282 10.3892 17.4405C9.9676 16.6529 9.7467 15.7733 9.74609 14.8798C9.74609 13.8683 10.0098 12.9447 10.4834 12.1433C11.8452 13.821 13.5446 15.1932 15.471 16.1707C17.3975 17.1481 19.5079 17.7089 21.665 17.8167C20.8984 14.1273 23.6523 11.1415 26.9629 11.1415C28.5254 11.1415 29.9316 11.7963 30.9229 12.8518C32.1484 12.6222 33.3203 12.1628 34.3652 11.5471C33.96 12.803 33.1104 13.8634 31.9824 14.5328C33.0762 14.4156 34.1309 14.1126 35.1074 13.6875C34.3701 14.7723 33.4473 15.735 32.3877 16.5022Z" fill="black"/>
</svg>
