<svg width="30" height="29" viewBox="0 0 30 29" fill="none" xmlns="http://www.w3.org/2000/svg">
<path d="M26.5 28.1251L17.1667 19.021C16.3333 19.6713 15.375 20.1861 14.2917 20.5654C13.2083 20.9448 12.0556 21.1345 10.8333 21.1345C7.80556 21.1345 5.24333 20.1119 3.14667 18.0667C1.04889 16.0205 0 13.5206 0 10.5672C0 7.61382 1.04889 5.114 3.14667 3.06775C5.24333 1.02258 7.80556 0 10.8333 0C13.8611 0 16.4239 1.02258 18.5217 3.06775C20.6183 5.114 21.6667 7.61382 21.6667 10.5672C21.6667 11.7594 21.4722 12.8839 21.0833 13.9406C20.6944 14.9973 20.1667 15.9321 19.5 16.745L28.875 25.8897C29.1806 26.1878 29.3333 26.5535 29.3333 26.9871C29.3333 27.4206 29.1667 27.7999 28.8333 28.1251C28.5278 28.4231 28.1389 28.5722 27.6667 28.5722C27.1944 28.5722 26.8056 28.4231 26.5 28.1251ZM10.8333 17.883C12.9167 17.883 14.6878 17.172 16.1467 15.75C17.6044 14.327 18.3333 12.5994 18.3333 10.5672C18.3333 8.53507 17.6044 6.80746 16.1467 5.38441C14.6878 3.96244 12.9167 3.25145 10.8333 3.25145C8.75 3.25145 6.97889 3.96244 5.52 5.38441C4.06222 6.80746 3.33333 8.53507 3.33333 10.5672C3.33333 12.5994 4.06222 14.327 5.52 15.75C6.97889 17.172 8.75 17.883 10.8333 17.883Z" fill="black"/>
</svg>
