<svg width="80" height="78" viewBox="0 0 80 78" fill="none" xmlns="http://www.w3.org/2000/svg">
<path d="M40 0C17.9086 0 0 17.2851 0 38.6075C0 59.9298 17.9086 77.2149 40 77.2149C62.0914 77.2149 80 59.9298 80 38.6075C80 17.2851 62.0914 0 40 0ZM25.625 15.3355C26.4491 15.2886 27.1941 15.7641 27.7588 16.608L33.2275 26.618C33.8033 27.8041 33.4761 29.0742 32.6172 29.9217L30.1123 32.3394C29.9577 32.5438 29.856 32.7741 29.8535 33.0274C30.8141 36.6163 33.728 39.9268 36.2989 42.2033C38.8697 44.4799 41.6329 47.5621 45.2197 48.2923C45.6631 48.4116 46.2062 48.4544 46.5235 48.1698L49.4336 45.3091C50.4381 44.5743 51.8913 44.2181 52.9639 44.819H53.0127L62.8807 50.4414C64.3293 51.3178 64.4793 53.0117 63.4423 54.042L56.6455 60.5504C55.6418 61.5439 54.3083 61.8779 53.0128 61.8794C47.2829 61.7137 41.8689 58.9994 37.422 56.2099C30.1227 51.0846 23.4271 44.7277 19.2237 37.0475C17.6115 33.827 15.7177 29.7179 15.8985 26.1233C15.9146 24.771 16.2937 23.4462 17.2803 22.5746L24.0772 16.0143C24.6067 15.5795 25.1305 15.3637 25.625 15.3355Z" fill="black"/>
</svg>
