<svg width="30" height="30" viewBox="0 0 30 30" fill="none" xmlns="http://www.w3.org/2000/svg">
<path d="M15 11.3801C15.766 11.3801 16.5246 11.2329 17.2323 10.947C17.9401 10.661 18.5831 10.2419 19.1248 9.71351C19.6665 9.18514 20.0961 8.55788 20.3893 7.86753C20.6824 7.17718 20.8333 6.43727 20.8333 5.69004C20.8333 4.94282 20.6824 4.20291 20.3893 3.51256C20.0961 2.82221 19.6665 2.19495 19.1248 1.66658C18.5831 1.13821 17.9401 0.71908 17.2323 0.433129C16.5246 0.147177 15.766 -1.57466e-08 15 0C13.4529 3.18018e-08 11.9692 0.599485 10.8752 1.66658C9.78125 2.73367 9.16667 4.18095 9.16667 5.69004C9.16667 7.19914 9.78125 8.64642 10.8752 9.71351C11.9692 10.7806 13.4529 11.3801 15 11.3801ZM0 28.2877V29.2631H30V28.2877C30 24.646 30 22.8252 29.2733 21.4336C28.6342 20.21 27.6144 19.2153 26.36 18.5918C24.9333 17.883 23.0667 17.883 19.3333 17.883H10.6667C6.93333 17.883 5.06667 17.883 3.64 18.5918C2.38564 19.2153 1.36581 20.21 0.726667 21.4336C1.98682e-07 22.8252 0 24.646 0 28.2877Z" stroke="black" stroke-width="4" stroke-linecap="round" stroke-linejoin="round"/>
</svg>
